<?xml version="1.0" encoding="UTF-8"?>
<!DOCTYPE svg PUBLIC "-//W3C//DTD SVG 1.0//EN" "http://www.w3.org/TR/2001/REC-SVG-20010904/DTD/svg10.dtd">
<!-- Creator: CorelDRAW 2021 (64-Bit) -->
<svg xmlns="http://www.w3.org/2000/svg" xml:space="preserve" width="200px" height="200px" version="1.0" style="shape-rendering:geometricPrecision; text-rendering:geometricPrecision; image-rendering:optimizeQuality; fill-rule:evenodd; clip-rule:evenodd"
viewBox="0 0 11.07 11.07"
 xmlns:xlink="http://www.w3.org/1999/xlink"
 xmlns:xodm="http://www.corel.com/coreldraw/odm/2003">
 <defs>
  <style type="text/css">
   <![CDATA[
    .fil2 {fill:white}
    .fil4 {fill:white}
    .fil3 {fill:black;fill-rule:nonzero}
    .fil1 {fill:black;fill-opacity:0.800000}
    .fil0 {fill:url(#id4)}
   ]]>
  </style>
   <mask id="id0">
  <linearGradient id="id1" gradientUnits="userSpaceOnUse" x1="10.53" y1="5.02" x2="10.53" y2="1.51">
   <stop offset="0" style="stop-opacity:0; stop-color:white"/>
   <stop offset="0.368627" style="stop-opacity:0.501961; stop-color:white"/>
   <stop offset="1" style="stop-opacity:1; stop-color:white"/>
  </linearGradient>
    <rect style="fill:url(#id1)" x="5.17" y="1.1" width="5.32" height="3.39"/>
   </mask>
   <mask id="id2">
  <radialGradient id="id3" gradientUnits="userSpaceOnUse" cx="8.13" cy="3.3" r="3.42" fx="8.13" fy="3.3">
   <stop offset="0" style="stop-opacity:1; stop-color:white"/>
   <stop offset="0.321569" style="stop-opacity:0.501961; stop-color:white"/>
   <stop offset="1" style="stop-opacity:0; stop-color:white"/>
  </radialGradient>
    <rect style="fill:url(#id3)" x="3.84" width="7.21" height="6.03"/>
   </mask>
  <linearGradient id="id4" gradientUnits="userSpaceOnUse" x1="5.53" y1="0" x2="5.53" y2="11.07">
   <stop offset="0" style="stop-opacity:1; stop-color:#212149"/>
   <stop offset="1" style="stop-opacity:1; stop-color:#9699CE"/>
  </linearGradient>
 </defs>
 <g id="Layer_x0020_1">
  <metadata id="CorelCorpID_0Corel-Layer"/>
  <rect class="fil0" width="11.07" height="11.07" rx="2.32" ry="2.32"/>
  <path class="fil1" d="M3.34 2.4l-3.34 0 0 6.35c0,1.28 1.04,2.3 2.32,2.31l3.82 0.01 0 -5.02 -2.8 0 0 -3.65zm-1.9 7.61c0.02,0.01 0.04,0.01 0.05,0.01 0.02,0.01 0.03,0.01 0.04,0.01 0.06,0 0.11,-0.03 0.15,-0.07 0.04,-0.05 0.06,-0.11 0.06,-0.18 0,-0.07 -0.02,-0.12 -0.05,-0.16 -0.03,-0.04 -0.08,-0.06 -0.13,-0.06 -0.01,0 -0.03,0 -0.05,0.01 -0.02,0.01 -0.04,0.02 -0.07,0.03l0 0.41zm-0.3 0.24l0 -1.39 0.3 -0.04 0 0.57c0.04,-0.02 0.07,-0.03 0.11,-0.04 0.03,-0.01 0.07,-0.01 0.1,-0.01 0.11,0 0.21,0.04 0.28,0.12 0.07,0.08 0.11,0.19 0.11,0.32 0,0.14 -0.04,0.25 -0.13,0.34 -0.09,0.08 -0.2,0.13 -0.34,0.13 -0.01,0 -0.03,0 -0.06,-0.01 -0.02,0 -0.04,0 -0.07,-0.01l-0.11 -0.02 -0.19 0.04zm1.05 -1.21c0,-0.05 0.02,-0.08 0.05,-0.12 0.03,-0.03 0.07,-0.04 0.12,-0.04 0.04,0 0.08,0.01 0.11,0.04 0.03,0.04 0.05,0.07 0.05,0.12 0,0.05 -0.02,0.08 -0.05,0.12 -0.03,0.03 -0.07,0.04 -0.11,0.04 -0.05,0 -0.08,-0.01 -0.12,-0.04 -0.03,-0.04 -0.05,-0.08 -0.05,-0.12zm0.32 1.17l-0.3 0 0 -0.85 0.3 -0.04 0 0.89zm0.1 0l0.38 -0.63 -0.33 0 0.06 -0.22 0.74 0 -0.38 0.62 0.37 0 -0.03 0.23 -0.81 0zm0.88 0l0.38 -0.63 -0.33 0 0.05 -0.22 0.75 0 -0.38 0.62 0.37 0 -0.04 0.23 -0.8 0zm0.97 -1.17c0,-0.05 0.02,-0.08 0.05,-0.12 0.03,-0.03 0.07,-0.04 0.12,-0.04 0.04,0 0.08,0.01 0.11,0.04 0.03,0.04 0.05,0.07 0.05,0.12 0,0.05 -0.02,0.08 -0.05,0.12 -0.03,0.03 -0.07,0.04 -0.11,0.04 -0.05,0 -0.09,-0.01 -0.12,-0.04 -0.03,-0.04 -0.05,-0.08 -0.05,-0.12zm0.32 1.17l-0.3 0 0 -0.85 0.3 -0.04 0 0.89zm0.46 -0.43c0,0.07 0.02,0.13 0.05,0.18 0.03,0.04 0.07,0.06 0.12,0.06 0.05,0 0.09,-0.02 0.12,-0.06 0.03,-0.05 0.05,-0.11 0.05,-0.18 0,-0.07 -0.02,-0.13 -0.05,-0.17 -0.03,-0.05 -0.07,-0.07 -0.12,-0.07 -0.05,0 -0.09,0.02 -0.12,0.07 -0.03,0.04 -0.05,0.1 -0.05,0.17zm-0.3 0c0,-0.13 0.05,-0.24 0.14,-0.33 0.08,-0.09 0.2,-0.13 0.33,-0.13 0.14,0 0.25,0.04 0.34,0.13 0.09,0.09 0.13,0.2 0.13,0.33 0,0.14 -0.04,0.25 -0.13,0.34 -0.09,0.08 -0.2,0.13 -0.34,0.13 -0.13,0 -0.25,-0.05 -0.33,-0.13 -0.09,-0.09 -0.14,-0.2 -0.14,-0.34zm-1 -2.63l1.13 0 0 1.13 -1.13 0 0 -1.13zm-1.68 -0.01l0 1.12 -1.12 0 0 -1.12 1.12 0zm0 -1.84l0 1.13 -1.12 0 0 -1.13 1.12 0z"/>
  <path class="fil2" style="mask:url(#id0)" d="M10.48 3.4c0,0.6 -0.54,1.08 -1.2,1.08l-3.04 0c-0.59,0 -1.06,-0.43 -1.06,-0.96 0,-0.47 0.36,-0.85 0.84,-0.94 -0.03,-0.08 -0.05,-0.17 -0.05,-0.26 0,-0.4 0.36,-0.72 0.8,-0.72 0.16,0 0.31,0.04 0.44,0.12 0.23,-0.36 0.65,-0.61 1.15,-0.61 0.73,0 1.32,0.54 1.32,1.21 0,0.02 0,0.04 0,0.06 0.46,0.15 0.8,0.55 0.8,1.02z"/>
  <rect class="fil2" x="1.15" y="3.47" width="1.11" height="1.11"/>
  <path class="fil2" d="M4.06 1.74l-0.03 -0.02 0.02 0.03 -0.12 -0.01c0.03,0.01 0.1,0.04 0.12,0.04 -0.02,0.01 -0.03,0.01 -0.04,0.02l0.04 0c-0.01,0 -0.06,0.08 -0.07,0.08 0.03,-0.01 0.06,-0.04 0.09,-0.06l-0.01 0.04c0.01,-0.01 0.02,-0.03 0.02,-0.04 0.01,0.03 0.03,0.08 0.05,0.11l0 -0.11c0,0 0,0 0,0l-0.01 -0.02 0.12 0.02c-0.02,-0.01 -0.1,-0.04 -0.11,-0.04 0.02,-0.01 0.03,-0.01 0.04,-0.02l-0.05 0c0.01,0 0.01,0 0.02,-0.01l0.05 -0.07c-0.02,0.01 -0.05,0.04 -0.08,0.06 0,-0.02 0.01,-0.03 0,-0.04 -0.01,0.01 -0.02,0.03 -0.02,0.04l-0.04 -0.1 0.01 0.1z"/>
  <path class="fil2" d="M1.15 1.62c-0.01,-0.02 -0.01,-0.02 -0.03,-0.02l0.02 0.03 -0.11 -0.02 0.1 0.04c-0.01,0.01 -0.02,0.01 -0.03,0.02l0.04 0 -0.07 0.09c0.01,-0.02 0.08,-0.06 0.09,-0.07l-0.01 0.05 0.02 -0.05c0,0.01 0.03,0.08 0.04,0.1l-0.01 -0.1c0.01,0.01 0.01,0.01 0.02,0.02 0,-0.02 0,-0.02 -0.01,-0.03l0.11 0.01 -0.1 -0.04c0,0 0.01,0 0.01,0l0.02 -0.02 -0.04 0.01c0.01,-0.01 0.06,-0.08 0.07,-0.09 -0.02,0.01 -0.03,0.02 -0.04,0.03 -0.02,0.01 -0.04,0.02 -0.05,0.03l0.01 -0.04 -0.02 0.04 -0.04 -0.1 0.01 0.11z"/>
  <path class="fil2" d="M4.24 3.86l-0.03 -0.03 0.02 0.03 -0.09 -0.03c0.02,0.01 0.05,0.04 0.07,0.05l-0.03 0.01c0.01,0.01 0.02,0.01 0.04,0.01 -0.01,0 -0.07,0.05 -0.09,0.06l0.09 -0.04 -0.01 0.03 0.02 -0.01c0,-0.01 0,-0.01 0.01,-0.02l0.01 0.1 0.01 -0.09c0,0 0.01,0.01 0.02,0.02l-0.01 -0.03 0.09 0.04c-0.01,-0.01 -0.03,-0.03 -0.05,-0.04 -0.03,-0.02 -0.04,-0.02 0.01,-0.02 -0.01,-0.01 -0.03,-0.01 -0.04,-0.01 0.01,0 0.06,-0.05 0.08,-0.06l-0.08 0.03 0.01 -0.03 -0.02 0.02c-0.01,0 -0.01,0.01 -0.01,0.01l-0.01 -0.1 -0.01 0.1z"/>
  <path class="fil2" d="M5.22 2.68c0,-0.01 -0.01,-0.02 -0.02,-0.04 0,0.01 0,0.02 0,0.03 -0.01,0 -0.02,-0.01 -0.03,-0.02l-0.03 -0.02 0.05 0.07 -0.05 -0.01 0.04 0.02 -0.08 0.03 0.09 -0.01c-0.01,0.01 -0.01,0.02 -0.02,0.03 0.02,-0.01 0.01,-0.01 0.03,-0.02l-0.01 0.09c0.01,-0.02 0.02,-0.06 0.03,-0.09l0.02 0.04 0 -0.04c0.01,0.02 0.05,0.04 0.06,0.05 0,-0.01 0,0 0,-0.01l-0.05 -0.06 0.03 0.01c-0.01,-0.02 -0.01,-0.01 -0.02,-0.02l0.08 -0.03 -0.09 0.01c0.01,-0.01 0.01,-0.01 0.01,-0.03 -0.01,0.01 -0.01,0.01 -0.02,0.02l0.01 -0.09 -0.03 0.09z"/>
  <path class="fil2" d="M2.77 0.97l0.01 0.04 -0.1 -0.04c0.02,0.01 0.07,0.06 0.09,0.06l-0.04 0.01c0.01,0.01 0.03,0.01 0.04,0.01 -0.02,0.01 -0.08,0.06 -0.09,0.07l0.1 -0.04 -0.02 0.03c0.02,-0.01 0.01,0 0.02,-0.01 0.02,-0.01 0.01,-0.02 0.01,-0.01 0.02,0.02 0.01,0.07 0.02,0.1 0.01,-0.05 -0.01,-0.12 0.02,-0.09l0.02 0.01 -0.02 -0.04 0.1 0.05c-0.01,-0.01 -0.07,-0.07 -0.08,-0.07l0.04 0c-0.01,-0.01 -0.03,-0.01 -0.04,-0.01 0.01,-0.01 0.07,-0.06 0.09,-0.07l-0.1 0.04c0,-0.01 0,-0.01 0.01,-0.03 -0.02,0.01 -0.02,0.02 -0.03,0.02l-0.01 -0.09c-0.01,0.02 -0.01,0.05 -0.01,0.07 -0.01,0.03 -0.01,0 -0.03,-0.01z"/>
  <path class="fil2" d="M8.78 4.89c-0.01,-0.01 -0.01,0 -0.02,-0.01 0,0.02 0,0.01 0.01,0.02l-0.1 -0.01c0.02,0.01 0.09,0.04 0.1,0.04l-0.03 0.01c0,0 0,0 0,0l0.03 0c-0.01,0.01 -0.02,0.02 -0.03,0.04 -0.01,0.01 -0.02,0.02 -0.03,0.04 0.03,-0.02 0.05,-0.04 0.07,-0.06l0 0.03c0.01,0 0.01,-0.02 0.02,-0.03 0,0 0.03,0.08 0.03,0.09l-0.01 -0.09c0,0 0.02,0.02 0.03,0.02l-0.02 -0.03 0.1 0.01c-0.02,-0.01 -0.08,-0.04 -0.09,-0.04 0.01,0 0.01,0 0.02,0l0.01 -0.01 -0.04 0c0.01,0 0.03,-0.03 0.03,-0.03 0.01,-0.02 0.02,-0.03 0.03,-0.04 -0.01,0.01 -0.02,0.02 -0.04,0.03 0,0 -0.01,0.01 -0.02,0.01 -0.01,0.01 -0.01,0.01 -0.01,0.02l0 -0.04 -0.02 0.03c0,-0.02 -0.03,-0.08 -0.03,-0.1l0.01 0.1z"/>
  <path class="fil2" d="M6.5 5.58l-0.01 -0.02c0,0 0,0 0,-0.01l0 0.03c-0.01,-0.01 -0.04,-0.04 -0.05,-0.04 0.01,0.01 0.04,0.04 0.04,0.05l-0.03 0 0.03 0.01 -0.06 0.02 0.06 -0.01 -0.01 0.02 0.02 -0.01 -0.01 0.06c0,0 0.02,-0.05 0.02,-0.06l0.01 0.03 0 -0.03c0,0 0.04,0.03 0.05,0.04 0,-0.01 -0.03,-0.05 -0.04,-0.05l0.03 0 -0.02 -0.01 0.05 -0.02 -0.06 0c0,0 0.01,-0.01 0.01,-0.02l-0.02 0.02 0.01 -0.06c0,0 -0.02,0.05 -0.02,0.06z"/>
  <path class="fil2" d="M7.1 6.73l-0.02 -0.01 0.01 0.02 -0.06 -0.01 0.06 0.03 -0.02 0c0,0 0,0 0,0l0.02 0c-0.01,0.02 -0.03,0.04 -0.04,0.06l0.05 -0.04 0 0.03c0,-0.01 0.01,-0.02 0.01,-0.03 0,0 0.02,0.05 0.03,0.06l-0.01 -0.06c0,0 0.01,0 0.01,0.01 0,-0.01 0,-0.02 -0.01,-0.02l0.07 0.01 -0.06 -0.03 0.03 -0.01 -0.03 0 0.04 -0.05c-0.01,0.01 -0.05,0.04 -0.05,0.04l0 -0.03 -0.01 0.03 -0.03 -0.07 0.01 0.07z"/>
  <path class="fil2" d="M6.28 1.15c0,-0.01 -0.01,-0.02 -0.02,-0.03l0.01 0.04 -0.09 -0.04c0.02,0.01 0.05,0.04 0.08,0.05l-0.04 0.01 0.02 0.01c0.01,0 0.02,0 0.02,0 -0.01,0 -0.07,0.05 -0.08,0.06l0.09 -0.04 -0.01 0.03c0.01,0 0.02,-0.01 0.02,-0.03l0.02 0.11 0.01 -0.1c0,0 0,0.01 0.01,0.01l0 0.01c0,0 0,0 0.01,0l-0.01 -0.03 0.09 0.04c-0.01,-0.01 -0.07,-0.05 -0.08,-0.06l0.04 0c-0.01,-0.01 -0.03,-0.01 -0.04,-0.01 0,0 0.07,-0.05 0.08,-0.06l-0.09 0.03 0.02 -0.03c-0.01,0.01 -0.03,0.02 -0.03,0.03l-0.01 -0.1 -0.02 0.1z"/>
  <path class="fil2" d="M10.66 5.56l-0.02 -0.04 0 0.04c-0.01,-0.01 -0.02,-0.02 -0.04,-0.03 -0.01,-0.01 -0.02,-0.02 -0.03,-0.02 0.01,0.01 0.05,0.07 0.06,0.07l-0.04 0c0,0 -0.01,0 0,0l0.03 0.01 -0.08 0.04 0.09 -0.01 -0.02 0.03 0.03 -0.02 -0.02 0.1 0.04 -0.1 0.02 0.04 -0.01 -0.04c0.01,0.01 0.07,0.05 0.08,0.06 -0.01,-0.02 -0.02,-0.03 -0.03,-0.04 -0.01,-0.01 -0.02,-0.03 -0.03,-0.04l0.03 0c-0.01,-0.01 -0.01,0 -0.02,-0.01l0.08 -0.04 -0.09 0.02 0.02 -0.04 -0.03 0.02 0.01 -0.09c-0.01,0.02 -0.03,0.09 -0.03,0.09z"/>
  <path class="fil2" d="M10.31 4.57c0,0 -0.01,-0.02 -0.02,-0.02 0,0 0,0 0,0 0,0 0,0 0,0l0.01 0.03 -0.09 -0.03c0.02,0.01 0.06,0.04 0.07,0.05l-0.04 0.01 0.05 0 -0.08 0.06 0.09 -0.04 -0.02 0.04 0.03 -0.03 0.01 0.1 0.01 -0.1c0,0.01 0.01,0.02 0.02,0.03 0,0 0,0 0,0l-0.01 -0.04 0.09 0.04c-0.01,-0.01 -0.07,-0.05 -0.07,-0.05l0.04 -0.01 -0.05 -0.01 0.08 -0.05 -0.08 0.03c0,-0.01 0,-0.01 0.01,-0.03 -0.01,0.01 -0.01,0 -0.01,0.01l-0.02 0.02 -0.01 -0.11 -0.01 0.1z"/>
  <path class="fil2" d="M9.48 6.67c0,-0.01 -0.01,-0.01 -0.02,-0.02l0.01 0.03 -0.06 -0.03 0.05 0.04 -0.01 0.01c0,0 0.01,0.01 0.02,0l-0.06 0.04 0.06 -0.02c0,0 0,0.01 0,0.01 0,0.01 -0.01,0 0,0.01 0.01,-0.01 0.01,-0.01 0.01,-0.02 0,0.02 0.01,0.05 0.01,0.06l0.01 -0.05c0.01,0.01 0.01,0.01 0.02,0.02l-0.01 -0.03 0.06 0.03c-0.01,-0.02 -0.03,-0.02 -0.03,-0.04 0,-0.01 -0.01,0 0.01,-0.01 -0.01,0 -0.01,-0.01 -0.01,-0.02l0.03 -0.02 -0.06 0.02 0.01 -0.02c-0.01,0 -0.01,0 -0.02,0.01l-0.01 -0.04c0,-0.01 0,-0.01 0,-0.01l-0.01 0.05z"/>
  <path class="fil2" d="M4.89 5.36l-0.02 -0.01c0.02,0.02 0.01,0.01 0,0.02 0,0.01 0.01,0 0,0.01 0,0 -0.01,0 -0.01,0l0.02 0.01 -0.01 0.01 0.02 -0.01 0 0.02c0.01,0 0.01,-0.01 0.01,-0.01 0.01,0 0.01,0 0.01,0.01 0.01,-0.01 0.01,0 0.01,-0.01 0,0 0,0 0,-0.01l0.02 0.01c-0.01,-0.02 -0.02,-0.02 0.01,-0.02l-0.02 -0.01 0.01 -0.02c-0.03,0.01 -0.02,0 -0.02,0l-0.01 0c-0.01,0 0,0.01 -0.02,-0.01l0 0.02z"/>
  <path class="fil2" d="M8.34 7.28l-0.02 0c0.01,0.01 0,0 0,0.02 0,0.01 0.01,-0.01 0,0 -0.01,0.01 -0.01,0.01 -0.01,0.01l0.02 0 -0.01 0.02 0.01 -0.01 0.01 0.02c0.01,-0.01 0.01,-0.01 0.01,-0.02 0.01,0.01 0.01,0 0.01,0.01 0,0 0,0 0.01,0 0,-0.01 0,-0.01 0,-0.01l0.02 0c-0.01,-0.01 -0.02,-0.01 0.01,-0.01l-0.02 -0.01 0 -0.02c-0.03,0 -0.01,0 -0.02,0l0 -0.01c-0.01,0 -0.01,0.01 -0.02,0l0 0.01z"/>
  <path class="fil2" d="M10.06 7.7l-0.02 -0.01c0.02,0.02 0,0.01 0,0.02 0,0.01 0.01,0 0,0.01 0,0 -0.01,0 -0.01,0l0.02 0.01 -0.01 0.01 0.02 -0.01 0 0.02c0.01,0 0.01,-0.01 0.01,-0.01 0.01,0 0.01,0 0.01,0.01 0.01,-0.01 0.01,0 0.01,-0.01 0,0 0,0 0,-0.01l0.02 0.01c-0.01,-0.02 -0.02,-0.02 0.01,-0.02l-0.02 -0.01 0.01 -0.02c-0.04,0.01 -0.02,0 -0.03,0l0 0c-0.01,0 0,0.01 -0.02,-0.01l0 0.02z"/>
  <path class="fil2" d="M9.61 1.01l-0.03 -0.03 0.02 0.04 -0.12 -0.02c0.03,0.01 0.09,0.04 0.11,0.04 -0.02,0.01 -0.02,0.01 -0.04,0.02l0.05 0c-0.01,0 -0.06,0.07 -0.07,0.08 0.03,-0.02 0.05,-0.04 0.08,-0.06l-0.01 0.04c0.01,-0.01 0.02,-0.03 0.02,-0.04 0.01,0.03 0.03,0.07 0.05,0.1l0 -0.1c0,0 0,0 0,0l-0.01 -0.02 0.11 0.02c-0.02,-0.01 -0.09,-0.04 -0.1,-0.04 0.01,0 0.02,-0.01 0.04,-0.02l-0.05 0.01c0.01,0 0.01,-0.01 0.02,-0.02l0.05 -0.07c-0.03,0.02 -0.05,0.05 -0.08,0.06 0,-0.01 0.01,-0.02 0,-0.03 -0.01,0.01 -0.02,0.03 -0.02,0.04l-0.04 -0.1 0.02 0.1z"/>
  <path class="fil2" d="M10.44 2.21l-0.02 -0.04 0 0.04c-0.01,-0.01 -0.02,-0.02 -0.04,-0.03 -0.01,-0.01 -0.02,-0.02 -0.03,-0.03 0.01,0.01 0.05,0.08 0.06,0.08l-0.04 0c0,0 -0.01,0 0,0l0.03 0.01 -0.08 0.04 0.09 -0.02 -0.02 0.04 0.03 -0.02 -0.02 0.09 0.04 -0.09 0.02 0.04 -0.01 -0.04c0.01,0 0.07,0.04 0.08,0.05 -0.01,-0.01 -0.02,-0.02 -0.03,-0.03 -0.01,-0.02 -0.02,-0.03 -0.03,-0.04l0.03 0c-0.01,-0.01 -0.01,-0.01 -0.02,-0.02l0.08 -0.03 -0.09 0.01 0.02 -0.03 -0.03 0.02 0.01 -0.09c-0.01,0.01 -0.03,0.08 -0.03,0.09z"/>
  <path class="fil2" d="M6.58 7.81c0,-0.01 -0.01,-0.01 -0.01,-0.02l0 0.02 -0.03 -0.01 0.03 0.02 -0.01 0c0,0 0,0 0.01,0l-0.03 0.02 0.03 -0.01c0,0 0,0 0,0 0,0.01 0,0 0,0.01 0.01,-0.01 0.01,-0.01 0.01,-0.01 0,0.01 0,0.03 0,0.03l0.01 -0.02c0,0 0,0 0,0l0 -0.01 0.03 0.01c-0.01,0 -0.01,-0.01 -0.02,-0.01 0.01,-0.01 0,0 0.01,-0.01 0,0 0,0 0,-0.01l0.01 -0.01 -0.03 0.01 0.01 -0.01c-0.01,0 -0.01,0 -0.01,0.01l-0.01 -0.03c0,0 0,0 0,0l0 0.03z"/>
  <path class="fil3" d="M6.88 9.6c0.01,-0.05 0.04,-0.09 0.09,-0.12 0.04,-0.03 0.09,-0.04 0.15,-0.04 0.06,0 0.12,0.02 0.17,0.07 0.04,0.04 0.06,0.1 0.06,0.18l0 0.45 -0.04 0 0 -0.45c0,-0.06 -0.02,-0.11 -0.06,-0.15 -0.04,-0.04 -0.09,-0.06 -0.14,-0.06 -0.05,0 -0.1,0.02 -0.14,0.06 -0.05,0.04 -0.07,0.09 -0.07,0.14l0 0.46 -0.05 0 0 -0.46c0,-0.05 -0.01,-0.1 -0.05,-0.14 -0.04,-0.04 -0.09,-0.06 -0.14,-0.06 -0.06,0 -0.1,0.02 -0.14,0.06 -0.04,0.04 -0.06,0.09 -0.06,0.14l0 0.46 -0.05 0 0 -0.68 0.05 0 0 0.09c0.02,-0.03 0.05,-0.06 0.09,-0.08 0.04,-0.02 0.08,-0.03 0.12,-0.03 0.04,0 0.08,0.01 0.12,0.04 0.04,0.03 0.07,0.07 0.09,0.12z"/>
  <path id="_1" class="fil3" d="M7.85 10.15c-0.09,0 -0.18,-0.03 -0.25,-0.1 -0.07,-0.08 -0.1,-0.16 -0.1,-0.26 0,-0.09 0.03,-0.18 0.1,-0.25 0.08,-0.07 0.16,-0.1 0.26,-0.1 0.1,0 0.18,0.03 0.25,0.1 0.07,0.07 0.11,0.16 0.11,0.25 0,0.1 -0.04,0.18 -0.1,0.26 -0.07,0.07 -0.16,0.1 -0.25,0.1l-0.02 0zm0.32 -0.35c0,-0.09 -0.03,-0.16 -0.09,-0.22 -0.06,-0.07 -0.13,-0.1 -0.22,-0.1 -0.08,0 -0.16,0.03 -0.22,0.1 -0.06,0.06 -0.09,0.13 -0.09,0.22 0,0.08 0.03,0.16 0.09,0.22 0.06,0.06 0.14,0.09 0.22,0.09 0.09,0 0.16,-0.03 0.22,-0.09 0.06,-0.06 0.09,-0.14 0.09,-0.22z"/>
  <path id="_2" class="fil3" d="M8.36 10.14l0 -1.14 0.05 0 0 0.62c0.03,-0.05 0.07,-0.1 0.13,-0.13 0.06,-0.03 0.12,-0.05 0.18,-0.05 0.1,0 0.19,0.03 0.26,0.1 0.07,0.07 0.1,0.16 0.1,0.26 0,0.09 -0.03,0.18 -0.1,0.25 -0.07,0.07 -0.16,0.1 -0.26,0.1 -0.06,0 -0.12,-0.01 -0.18,-0.05 -0.05,-0.03 -0.1,-0.07 -0.13,-0.13l0 0.17 -0.05 0zm0.05 -0.34c0,0.08 0.03,0.16 0.09,0.22 0.06,0.06 0.14,0.09 0.22,0.09 0.09,0 0.16,-0.03 0.22,-0.09 0.06,-0.06 0.09,-0.14 0.09,-0.22 0,-0.09 -0.03,-0.16 -0.09,-0.22 -0.06,-0.07 -0.13,-0.1 -0.22,-0.1 -0.08,0 -0.16,0.03 -0.22,0.1 -0.06,0.06 -0.09,0.13 -0.09,0.22z"/>
  <path id="_3" class="fil3" d="M9.29 9.46l0 0.68 -0.05 0 0 -0.68 0.05 0zm-0.02 -0.17c-0.03,0 -0.05,-0.01 -0.05,-0.04 0,-0.03 0.02,-0.04 0.05,-0.04 0.03,0 0.04,0.01 0.04,0.04 0,0.03 -0.01,0.04 -0.04,0.04z"/>
  <path id="_4" class="fil3" d="M9.75 10.11l0 0.04c-0.07,0 -0.13,-0.02 -0.18,-0.07 -0.05,-0.05 -0.08,-0.11 -0.08,-0.19l0 -0.89 0.05 0 0 0.89c0,0.07 0.02,0.12 0.06,0.16 0.05,0.04 0.09,0.06 0.15,0.06z"/>
  <path id="_5" class="fil3" d="M10.15 10.16l-0.01 0c-0.09,0 -0.18,-0.04 -0.25,-0.11 -0.07,-0.08 -0.11,-0.16 -0.11,-0.26 0,-0.09 0.04,-0.17 0.11,-0.24 0.07,-0.07 0.16,-0.11 0.26,-0.11 0.11,0 0.19,0.04 0.27,0.12l-0.48 0.47c0.07,0.06 0.13,0.08 0.19,0.08 0.06,0 0.12,-0.01 0.17,-0.04 0.04,-0.03 0.08,-0.06 0.12,-0.11l0 0.08c-0.08,0.08 -0.16,0.12 -0.27,0.12zm-0.01 -0.68c-0.08,0 -0.15,0.03 -0.21,0.1 -0.07,0.06 -0.1,0.13 -0.1,0.21 0,0.08 0.03,0.15 0.08,0.21l0.44 -0.44c-0.06,-0.05 -0.13,-0.08 -0.21,-0.08z"/>
  <path class="fil4" style="mask:url(#id2)" d="M7.45 0.01c1.98,0 3.59,1.34 3.59,3 0,1.66 -1.61,3.01 -3.59,3.01 -1.99,0 -3.6,-1.35 -3.6,-3.01 0,-1.66 1.61,-3 3.6,-3z"/>
 </g>
</svg>
